# xmcd
#
# Track frame offsets:
#	150
#	16908
#	33037
#	54164
#	72354
#	91180
#	109221
#	125828
#	141809
#	162788
#	180828
#	199506
#
# Disc length: 2900 seconds
#
# Revision: 1
# Processed by: cddbd v1.5.2PL0 Copyright (c) Steve Scherf et al.
# Submitted via: audiograbber 1.83.01
#
DISCID=910b520c
DTITLE=Paul Overstreet - CB 20245
DYEAR=1900
DGENRE=country
TTITLE0=Daddy's Come Around (with Vocals)
TTITLE1=Ball and Chain (with Vocals)
TTITLE2=Heroes (with Vocals)
TTITLE3=Sowin' Love (with Vocals)
TTITLE4=All the Fun (with Vocals)
TTITLE5=If I Could Bottle This Up (with Vocals)
TTITLE6=Daddy's Come Around
TTITLE7=Ball and Chain
TTITLE8=Heroes
TTITLE9=Sowin' Love
TTITLE10=All the Fun
TTITLE11=If I Could Bottle This Up
EXTD=
EXTT0=
EXTT1=
EXTT2=
EXTT3=
EXTT4=
EXTT5=
EXTT6=
EXTT7=
EXTT8=
EXTT9=
EXTT10=
EXTT11=
PLAYORDER=
